<?xml version="1.0" encoding="UTF-8"?>
<svg width="712px" height="395px" viewBox="0 0 712 395" version="1.1" xmlns="http://www.w3.org/2000/svg" xmlns:xlink="http://www.w3.org/1999/xlink">
    <!-- Generator: Sketch 44.1 (41455) - http://www.bohemiancoding.com/sketch -->
    <title>Artboard</title>
    <desc>Created with Sketch.</desc>
    <defs></defs>
    <g id="Page-1" stroke="none" stroke-width="1" fill="none" fill-rule="evenodd">
        <g id="Artboard" stroke="#FFFFFF">
            <g id="TRIANGLE_STRIP_2" transform="translate(130.000000, 109.000000)" fill-opacity="0.4" fill="#FFFFFF">
                <polygon id="Path" points="0 67.0513652 94.8141653 16.0422833 27.9157044 137.206828"></polygon>
                <polygon id="Path" points="115.392897 91.5 94.8141653 16.0422833 27.9157044 137.206828"></polygon>
                <polygon id="Path" points="115.392897 91.5 94.8141653 16.0422833 211.574541 0.0136980152"></polygon>
                <polygon id="Path" points="115.392897 91.5 209.574541 73.4513397 211.574541 0.0136980152"></polygon>
                <polygon id="Path" points="316.971613 16.3047464 209.574541 73.4513397 211.574541 0.0136980152"></polygon>
                <polygon id="Path" points="316.971613 16.3047464 209.574541 73.4513397 308.044674 88.5"></polygon>
                <polygon id="Path" points="316.971613 16.3047464 436.686929 72.1967594 308.044674 88.5"></polygon>
                <polygon id="Path" points="397.822684 131.750791 436.686929 72.1967594 308.044674 88.5"></polygon>
                <polygon id="Path" points="397.822684 131.750791 436.686929 72.1967594 509.702268 154.777116"></polygon>
                <polygon id="Path" points="397.822684 131.750791 450.234547 196.643723 509.702268 154.777116"></polygon>
            </g>
            <g id="POINTS_2" transform="translate(154.000000, 178.000000)" stroke-linecap="square">
                <g transform="translate(0.000000, 64.000000)">
                    <path d="M0.19047619,0.19047619 L7.80952381,7.80952381" id="Line"></path>
                    <path d="M0.19047619,0.19047619 L7.80952381,7.80952381" id="Line" transform="translate(4.000000, 4.000000) scale(-1, 1) translate(-4.000000, -4.000000) "></path>
                </g>
                <g transform="translate(88.000000, 18.000000)">
                    <path d="M0.19047619,0.19047619 L7.80952381,7.80952381" id="Line"></path>
                    <path d="M0.19047619,0.19047619 L7.80952381,7.80952381" id="Line" transform="translate(4.000000, 4.000000) scale(-1, 1) translate(-4.000000, -4.000000) "></path>
                </g>
                <g transform="translate(183.000000, 0.000000)">
                    <path d="M0.19047619,0.19047619 L7.80952381,7.80952381" id="Line"></path>
                    <path d="M0.19047619,0.19047619 L7.80952381,7.80952381" id="Line" transform="translate(4.000000, 4.000000) scale(-1, 1) translate(-4.000000, -4.000000) "></path>
                </g>
                <g transform="translate(370.000000, 59.000000)">
                    <path d="M0.19047619,0.19047619 L7.80952381,7.80952381" id="Line"></path>
                    <path d="M0.19047619,0.19047619 L7.80952381,7.80952381" id="Line" transform="translate(4.000000, 4.000000) scale(-1, 1) translate(-4.000000, -4.000000) "></path>
                </g>
                <g transform="translate(423.000000, 123.000000)">
                    <path d="M0.19047619,0.19047619 L7.80952381,7.80952381" id="Line"></path>
                    <path d="M0.19047619,0.19047619 L7.80952381,7.80952381" id="Line" transform="translate(4.000000, 4.000000) scale(-1, 1) translate(-4.000000, -4.000000) "></path>
                </g>
                <g transform="translate(280.000000, 16.000000)">
                    <path d="M0.19047619,0.19047619 L7.80952381,7.80952381" id="Line"></path>
                    <path d="M0.19047619,0.19047619 L7.80952381,7.80952381" id="Line" transform="translate(4.000000, 4.000000) scale(-1, 1) translate(-4.000000, -4.000000) "></path>
                </g>
            </g>
            <g id="POINTS" transform="translate(126.000000, 104.000000)" stroke-linecap="square">
                <g transform="translate(0.000000, 68.000000)">
                    <path d="M0.19047619,0.19047619 L7.80952381,7.80952381" id="Line"></path>
                    <path d="M0.19047619,0.19047619 L7.80952381,7.80952381" id="Line" transform="translate(4.000000, 4.000000) scale(-1, 1) translate(-4.000000, -4.000000) "></path>
                </g>
                <g transform="translate(95.000000, 17.000000)">
                    <path d="M0.19047619,0.19047619 L7.80952381,7.80952381" id="Line"></path>
                    <path d="M0.19047619,0.19047619 L7.80952381,7.80952381" id="Line" transform="translate(4.000000, 4.000000) scale(-1, 1) translate(-4.000000, -4.000000) "></path>
                </g>
                <g transform="translate(212.000000, 0.000000)">
                    <path d="M0.19047619,0.19047619 L7.80952381,7.80952381" id="Line"></path>
                    <path d="M0.19047619,0.19047619 L7.80952381,7.80952381" id="Line" transform="translate(4.000000, 4.000000) scale(-1, 1) translate(-4.000000, -4.000000) "></path>
                </g>
                <g transform="translate(437.000000, 72.000000)">
                    <path d="M0.19047619,0.19047619 L7.80952381,7.80952381" id="Line"></path>
                    <path d="M0.19047619,0.19047619 L7.80952381,7.80952381" id="Line" transform="translate(4.000000, 4.000000) scale(-1, 1) translate(-4.000000, -4.000000) "></path>
                </g>
                <g transform="translate(510.000000, 155.000000)">
                    <path d="M0.19047619,0.19047619 L7.80952381,7.80952381" id="Line"></path>
                    <path d="M0.19047619,0.19047619 L7.80952381,7.80952381" id="Line" transform="translate(4.000000, 4.000000) scale(-1, 1) translate(-4.000000, -4.000000) "></path>
                </g>
                <g transform="translate(318.000000, 17.000000)">
                    <path d="M0.19047619,0.19047619 L7.80952381,7.80952381" id="Line"></path>
                    <path d="M0.19047619,0.19047619 L7.80952381,7.80952381" id="Line" transform="translate(4.000000, 4.000000) scale(-1, 1) translate(-4.000000, -4.000000) "></path>
                </g>
            </g>
            <g id="TRIANGLES" transform="translate(130.000000, 108.000000)" fill-opacity="0.4" fill="#FFFFFF">
                <polygon id="Path" points="0 68.0513652 94.8141653 17.0422833 211.843113 -1.42108547e-14"></polygon>
                <polygon id="Path-2" points="318.350048 17.3044843 438.155004 72.7023612 510.642968 156.180692"></polygon>
            </g>
            <g id="TRIANGLE_STRIP" transform="translate(130.000000, 108.000000)" fill-opacity="0.4" fill="#FFFFFF">
                <polygon id="Path" points="0 68.0513652 94.8141653 17.0422833 211.843113 -1.42108547e-14"></polygon>
                <polygon id="Path" points="318.043285 17.0422833 94.8141653 17.0422833 211.843113 -1.42108547e-14"></polygon>
                <polygon id="Path" points="318.043285 17.0422833 436.961622 71.7898254 211.843113 -1.42108547e-14"></polygon>
                <polygon id="Path" points="318.043285 17.0422833 436.961622 71.7898254 510.526172 154.667898"></polygon>
            </g>
        </g>
    </g>

    <!-- <script>
      console.log(document.querySelectorAll('g'))
    </script> -->
</svg>
